<svg width="16" height="16" viewBox="0 0 16 16" fill="none" xmlns="http://www.w3.org/2000/svg">
<path d="M13.5 7V4" stroke="black" stroke-linecap="round" stroke-linejoin="round"/>
<path d="M15 5.5H12" stroke="black" stroke-linecap="round" stroke-linejoin="round"/>
<path d="M10.5 1.5V3.5" stroke="black" stroke-linecap="round" stroke-linejoin="round"/>
<path d="M11.5 2.5H9.5" stroke="black" stroke-linecap="round" stroke-linejoin="round"/>
<path d="M13.5436 9.53749C12.562 9.81277 11.5247 9.82179 10.5384 9.56363C9.55211 9.30546 8.65229 8.78943 7.93137 8.06851C7.21045 7.34759 6.69442 6.44777 6.43626 5.46146C6.1781 4.47516 6.18712 3.43791 6.46239 2.45624C5.49456 2.72562 4.61419 3.24388 3.90898 3.95938C3.20377 4.67489 2.69833 5.56268 2.44301 6.53432C2.18769 7.50595 2.19139 8.52753 2.45375 9.49729C2.71611 10.4671 3.22797 11.3512 3.93835 12.0615C4.64872 12.7719 5.53282 13.2838 6.50259 13.5461C7.47235 13.8085 8.49393 13.8122 9.46556 13.5569C10.4372 13.3015 11.325 12.7961 12.0405 12.0909C12.756 11.3857 13.2743 10.5053 13.5436 9.53749Z" stroke="black" stroke-linecap="round" stroke-linejoin="round"/>
</svg>
